<?xml version="1.0" encoding="utf-8"?>
<!-- Generator: Adobe Illustrator 26.5.0, SVG Export Plug-In . SVG Version: 6.00 Build 0)  -->
<svg version="1.1" id="Layer_1" xmlns="http://www.w3.org/2000/svg" xmlns:xlink="http://www.w3.org/1999/xlink" x="0px" y="0px"
	 viewBox="0 0 580.27 567.09" style="enable-background:new 0 0 580.27 567.09;" xml:space="preserve">
<style type="text/css">
	.st0{fill:#10A68B;}
	.st1{fill:#FFFFFF;}
</style>
<g>
	<g>
		<path class="st0" d="M289.73,510.45c-45.68-0.01-91.35,0.02-137.03-0.01c-49.32-0.04-89.54-40.31-89.55-89.65
			c-0.01-91.33-0.01-182.65,0.01-273.98c0.01-45.78,34.47-84.6,79.83-89.9c3.23-0.38,6.52-0.27,9.78-0.27
			c91.72-0.02,183.43-0.04,275.15-0.01c49.02,0.02,89.16,40.23,89.18,89.36c0.04,91.87,0.05,183.74,0.01,275.61
			c-0.02,48.22-40.54,88.75-88.71,88.85c-23.2,0.05-46.4,0.01-69.6,0.01C335.77,510.46,312.75,510.46,289.73,510.45z M289.8,413.27
			c51.83,0,103.66,0,155.49,0c15.47,0,20.26-4.73,20.28-20.04c0.02-27.18,0.01-54.35,0.01-81.53c0-9.2-0.96-10.15-10.39-10.15
			c-36.24-0.01-72.49,0-108.73-0.02c-8.03,0-9.06-1.05-9.07-9.12c-0.02-23.37-0.01-46.74-0.01-70.11c0-14.39,0-14.39,14.27-14.39
			c34.07,0,68.14,0,102.21,0c10.61,0,10.82-0.22,10.83-11.08c0-4.53,0.01-9.06,0-13.59c-0.02-8.68-0.29-8.97-8.75-8.98
			c-39.87-0.01-79.75,0.53-119.6-0.25c-17.14-0.33-32.97,16.23-32.74,32.3c0.48,32.24,0.03,64.49,0.17,96.74
			c0.08,18.64,13.84,32.1,32.47,32.13c29,0.04,57.99,0.1,86.99-0.06c5.11-0.03,7.08,1.58,6.96,6.87c-0.3,12.31-0.08,24.64-0.1,36.96
			c-0.01,7.41-0.15,7.55-7.67,7.55c-45.12,0.01-90.25,0-135.37,0c-42.04,0-84.09,0-126.13,0c-9.66,0-9.54-0.01-9.72-9.91
			c-0.08-4.31-0.16-8.78-1.28-12.89c-2.37-8.64-11.51-13.3-21.87-11.82c-8.28,1.19-12.22,6.38-12.28,16.36
			c-0.06,8.88-0.02,17.75-0.01,26.63c0.02,14.12,4.33,18.41,18.58,18.41C186.15,413.28,237.97,413.28,289.8,413.27z M116.83,254.95
			c0,23.72-0.01,47.45,0.01,71.17c0.01,8.28,0.76,9.05,8.97,9.06c40.22,0.02,80.44-0.47,120.65,0.24
			c16.11,0.29,33.2-15.84,32.32-32.04c-0.56-10.29-0.33-20.65,0.01-30.96c0.26-7.87-1.38-15.05-5.46-21.77
			c-0.89-1.46-4.53-3.62-4.52-5.31c0.02-13.4,3.37-26.51,3.34-39.91c-0.03-17.16-13.93-31.12-31.04-31.16
			c-38.59-0.08-77.17-0.04-115.76-0.02c-7.56,0-8.5,0.94-8.5,8.43C116.81,206.77,116.83,230.86,116.83,254.95z"/>
		<path class="st1" d="M289.8,413.27c-51.83,0.01-103.66,0.01-155.49,0c-14.25,0-18.56-4.29-18.58-18.41
			c-0.01-8.88-0.04-17.75,0.01-26.63c0.06-9.98,4-15.17,12.28-16.36c10.36-1.49,19.51,3.18,21.87,11.82
			c1.13,4.11,1.21,8.57,1.28,12.89c0.18,9.91,0.06,9.91,9.72,9.91c42.04,0,84.09,0,126.13,0c45.12,0,90.25,0.01,135.37,0
			c7.52,0,7.65-0.14,7.67-7.55c0.02-12.32-0.2-24.64,0.1-36.96c0.13-5.29-1.85-6.9-6.96-6.87c-28.99,0.16-57.99,0.11-86.99,0.06
			c-18.62-0.03-32.38-13.49-32.47-32.13c-0.15-32.25,0.3-64.5-0.17-96.74c-0.24-16.07,15.6-32.63,32.74-32.3
			c39.85,0.78,79.73,0.24,119.6,0.25c8.46,0,8.73,0.3,8.75,8.98c0.01,4.53,0,9.06,0,13.59c-0.01,10.86-0.22,11.08-10.83,11.08
			c-34.07,0-68.14,0-102.21,0c-14.27,0-14.27,0-14.27,14.39c0,23.37-0.01,46.74,0.01,70.11c0.01,8.07,1.04,9.11,9.07,9.12
			c36.24,0.02,72.49,0.01,108.73,0.02c9.43,0,10.39,0.95,10.39,10.15c0,27.18,0.01,54.35-0.01,81.53
			c-0.01,15.31-4.81,20.04-20.28,20.04C393.46,413.27,341.63,413.27,289.8,413.27z"/>
		<path class="st1" d="M116.83,254.95c0-24.09-0.02-48.17,0.01-72.26c0.01-7.49,0.95-8.43,8.5-8.43
			c38.59-0.02,77.17-0.07,115.76,0.02c17.11,0.04,31.32,14,31.04,31.16c-0.22,13.73-0.82,25.68-0.84,39.08
			c0,1.69-1.02,2.68,2.03,6.14c5.19,5.9,5.91,14.66,5.93,22.54c0.02,10.36,0.02,19.34-0.48,30.19c0.88,16.2-16.21,32.33-32.32,32.04
			c-40.2-0.72-80.43-0.23-120.65-0.24c-8.21,0-8.96-0.78-8.97-9.06C116.82,302.4,116.83,278.67,116.83,254.95z M197.61,301.52
			c13.75,0,27.49-0.03,41.24,0.02c3.41,0.01,6.17-0.4,6.12-4.82c-0.09-7.23-0.06-14.47-0.03-21.7c0.02-3.73-1.98-5.08-5.47-5.08
			c-27.67,0.03-55.35,0.03-83.02-0.01c-3.6-0.01-5.29,1.44-5.22,5.18c0.13,6.69,0.23,13.39-0.04,20.07
			c-0.18,4.67,1.54,6.47,6.27,6.4C170.84,301.4,184.23,301.52,197.61,301.52z M194.4,236.27c12.69,0,25.37-0.06,38.06,0.04
			c4.05,0.03,6.09-1.49,6-5.72c-0.11-5.61-0.11-11.23,0-16.85c0.09-4.12-1.7-5.87-5.86-5.86c-25.37,0.08-50.74,0.06-76.11,0.02
			c-3.61-0.01-5.34,1.41-5.25,5.16c0.13,5.43,0.27,10.88-0.06,16.3c-0.31,5.13,1.51,7.13,6.8,7.01
			C170.11,236.09,182.26,236.28,194.4,236.27z"/>
		<path class="st0" d="M197.61,301.52c-13.39,0-26.77-0.13-40.15,0.07c-4.73,0.07-6.45-1.73-6.27-6.4
			c0.26-6.68,0.17-13.38,0.04-20.07c-0.07-3.73,1.62-5.18,5.22-5.18c27.67,0.04,55.35,0.03,83.02,0.01c3.49,0,5.49,1.34,5.47,5.08
			c-0.03,7.23-0.07,14.47,0.03,21.7c0.06,4.41-2.7,4.83-6.12,4.82C225.11,301.49,211.36,301.52,197.61,301.52z"/>
		<path class="st0" d="M194.4,236.28c-12.14,0.01-24.29-0.18-36.42,0.09c-5.28,0.12-7.1-1.89-6.8-7.01
			c0.33-5.42,0.18-10.87,0.06-16.3c-0.09-3.75,1.64-5.16,5.25-5.16c25.37,0.05,50.74,0.06,76.11-0.02c4.16-0.01,5.95,1.74,5.86,5.86
			c-0.12,5.61-0.12,11.23,0,16.85c0.08,4.22-1.95,5.75-6,5.72C219.77,236.21,207.08,236.27,194.4,236.28z"/>
	</g>
</g>
</svg>
